<svg viewBox="0 0 18 15" xmlns="http://www.w3.org/2000/svg"><path d="M6.173 11.053h5.157c.085 0 .156-.07.156-.157v-1.64a.157.157 0 00-.156-.156h-.782a.157.157 0 00-.156.156v.703H7.111v-.703a.157.157 0 00-.156-.156h-.782a.157.157 0 00-.156.156v1.64c0 .086.07.157.156.157zm6.64-2.403a.781.781 0 101.563 0 .781.781 0 00-1.562 0zm4.669-3.273l-.463-.809a.156.156 0 00-.213-.056l-.99.578-1.53-4.223A1.248 1.248 0 0013.098 0H4.634c-.678 0-1.28.438-1.488 1.084L1.689 5.092l-.992-.578a.156.156 0 00-.213.056l-.463.807a.154.154 0 00.057.21l1.18.688-.284.782a.557.557 0 00-.035.195v6.8c0 .307.23.555.514.555h1.32c.24 0 .45-.181.5-.435l.15-.736H14.08l.15.736c.053.254.26.435.5.435h1.32c.283 0 .514-.248.514-.554V7.252a.557.557 0 00-.035-.195l-.283-.782 1.177-.687a.156.156 0 00.059-.211zM15.158 7.4v4.63H2.345V7.4l.305-.84h12.203l.305.84zM4.468 1.562l.01-.025.008-.025a.155.155 0 01.148-.108h8.352l1.472 4.063H3.048l1.42-3.904zM3.126 8.65a.781.781 0 101.563 0 .781.781 0 00-1.563 0z" /></svg>