<svg viewBox="0 0 22 22" xmlns="http://www.w3.org/2000/svg"><g><path d="M11 22c6.075 0 11-4.925 11-11S17.075 0 11 0 0 4.925 0 11s4.925 11 11 11zm0-2a9 9 0 110-18 9 9 0 010 18z" /><path d="M12.25 12.957c0-.474.218-.818.949-1.562l.155-.158c.954-.977 1.365-1.628 1.365-2.655C14.72 6.313 13.261 5 11 5 8.819 5 7.436 6.73 7.436 9a1 1 0 002 0c0-1.252.598-2 1.564-2 1.2 0 1.72.467 1.72 1.582 0 .338-.187.633-.797 1.257l-.152.155c-1.077 1.098-1.521 1.797-1.521 2.963a1 1 0 102 0z" /><circle cx="11" cy="16" r="1"/></g></svg>