<svg viewBox="0 0 60 60" xmlns="http://www.w3.org/2000/svg" xmlns:xlink="http://www.w3.org/1999/xlink"><defs><filter x="-37.5%" y="-37.5%" width="175%" height="175%" filterUnits="objectBoundingBox" id="a"><feOffset in="SourceAlpha" result="shadowOffsetOuter1"/><feGaussianBlur stdDeviation="5" in="shadowOffsetOuter1" result="shadowBlurOuter1"/><feColorMatrix values="0 0 0 0 0.184313725 0 0 0 0 0.51372549 0 0 0 0 1 0 0 0 0.144831731 0" in="shadowBlurOuter1"/></filter><circle id="b" cx="20" cy="20" r="20"/></defs><g fill="none" fill-rule="evenodd"><g transform="translate(10 10)"><use fill="#000" filter="url(#a)" xlink:href="#b"/><use fill="#FFF" xlink:href="#b"/></g><g fill-rule="nonzero"><path d="M43.263 26.085l.09-.06c-.03.02-.06.05-.09.06z" fill="#EC1C24"/><g fill="#256EFF"><path d="M40.714 30.252H39.56c0 .495-.042.99-.108 1.468a10.235 10.235 0 01-.874 2.919l-.008.016-.074.149a10.279 10.279 0 01-5.764 5.13c-1.08.378-2.235.593-3.439.593h-.107l1.426-2.936 1.435-2.936 1.435-2.935.718-1.468.717-1.468.717-1.468H25.813l-.717 1.468-.718 1.468H30.91l-.717 1.468-1.435 2.935-1.435 2.936-1.18 2.44-.238.487-1.056 2.17a13.235 13.235 0 0010.028-.487 12.763 12.763 0 002.705-1.7 13.171 13.171 0 002.68-2.935c.28-.42.536-.857.775-1.31l.222-.454c.182-.38.338-.776.479-1.171.33-.932.56-1.922.668-2.936.05-.478.082-.973.082-1.468h-1.773v.025z"/><path d="M21.253 36.66a10.514 10.514 0 01-1.262-2.005 10.388 10.388 0 01-.99-4.404c0-.494.042-.989.108-1.467.074-.503.181-.99.321-1.468.149-.503.339-.981.553-1.451l.008-.017.074-.148a10.23 10.23 0 012.02-2.78 10.279 10.279 0 013.745-2.341c1.08-.38 2.234-.594 3.438-.594h.107c1.056.008 2.07.182 3.027.487l.239-.487 1.056-2.169a13.235 13.235 0 00-10.028.487 12.763 12.763 0 00-2.705 1.699 13.171 13.171 0 00-2.68 2.935c-.28.42-.536.858-.775 1.311l-.223.454c-.181.38-.338.775-.478 1.171a14.33 14.33 0 00-.429 1.468c-.107.478-.19.973-.247 1.468-.05.478-.083.973-.083 1.468 0 .494.025.99.083 1.467.058.512.14 1.006.256 1.493.115.495.255.973.42 1.443.28.792.627 1.542 1.047 2.251.132.231.28.462.43.685.461.692.989 1.336 1.566 1.921.355.355.726.693 1.113 1.014.388.314.8.61 1.229.883l.429-.883.866-1.78a11.177 11.177 0 01-1.41-1.155c-.28-.322-.561-.635-.825-.957z"/></g><path d="M44.763 19.507a4.89 4.89 0 00-2.54-2.152 4.934 4.934 0 00-4.016 8.988 8.334 8.334 0 01-1.583.66c.058.016.124.033.181.05 2.16.576 4.354.23 6.152-.809a4.934 4.934 0 001.806-6.737zm-1.336 3.406h-1.995v1.995H39.56v-1.995h-1.996V21.04h1.996v-1.996h1.872v1.996h1.995v1.872z" fill="#FF2D31"/></g><g fill="#FFF"><path d="M34.98 26.44l-.02-.001h-.004v.002h.023zM34.956 26.44h-.015.015z"/></g></g></svg>