<svg viewBox="0 0 26 26" xmlns="http://www.w3.org/2000/svg"><g transform="rotate(-45 16.828 8.586)"><path d="M.918 6.757A1 1 0 010 5.76V3a3 3 0 013-3h16a3 3 0 013 3v2.76a1 1 0 01-1.082.997 2 2 0 100 3.986A1 1 0 0122 11.74V15a3 3 0 01-3 3H3a3 3 0 01-3-3v-3.26a1 1 0 01.918-.997 2 2 0 000-3.986zM2 4.949a4.003 4.003 0 010 7.602V15a1 1 0 001 1h16a1 1 0 001-1v-2.32a4.001 4.001 0 010-7.86V3a1 1 0 00-1-1H3a1 1 0 00-1 1v1.95z" /><rect x="6.75" y="5.75" width="8" height="2" rx="1"/><rect x="6.75" y="9.75" width="8" height="2" rx="1"/></g></svg>