<svg viewBox="0 0 18 18" xmlns="http://www.w3.org/2000/svg"><path d="M15.688 14.643c.003-.006.01-.012.013-.018A8.707 8.707 0 0017.75 9c0-2.143-.77-4.104-2.047-5.625l-.014-.016c-.021-.025-.04-.048-.062-.072-.008-.01-.016-.017-.023-.027l-.08-.092-.003-.002-.09-.1-.001-.002c-.063-.066-.125-.132-.19-.197l-.002-.002-.093-.094-.006-.005a3.488 3.488 0 00-.088-.084l-.031-.03c-.02-.02-.04-.037-.06-.054-.005-.006-.013-.012-.019-.02A8.708 8.708 0 009 .25a8.717 8.717 0 00-5.943 2.328c-.006.006-.014.012-.02.02-.02.017-.039.037-.058.056l-.032.03-.088.084-.005.005-.094.094-.002.002a9.03 9.03 0 00-.19.197l-.002.002-.09.1-.001.002c-.028.03-.055.06-.08.092l-.024.027c-.021.023-.04.049-.062.072l-.014.016A8.716 8.716 0 00.25 9c0 2.143.77 4.104 2.047 5.625l.014.018.06.072.024.027.08.092.002.004c.029.033.058.066.09.098l.001.002.188.197.002.002c.031.031.06.062.092.092l.005.005A8.734 8.734 0 009 17.75a8.717 8.717 0 006.139-2.516l.006-.005c.03-.032.062-.061.091-.092l.002-.002c.065-.065.127-.131.188-.197l.002-.002c.029-.034.06-.065.09-.098l.002-.004c.027-.03.054-.06.08-.092.007-.01.015-.017.023-.027l.065-.072zm.08-2.786a7.334 7.334 0 01-1.059 1.762 8.673 8.673 0 00-1.592-1.092c.227-.916.367-1.922.404-2.98h2.803a7.302 7.302 0 01-.556 2.31zm.556-3.404h-2.803a14.602 14.602 0 00-.404-2.98A8.673 8.673 0 0014.71 4.38a7.302 7.302 0 011.615 4.072zm-4.467-6.22c.776.328 1.48.78 2.102 1.351a7.71 7.71 0 01-1.16.816c-.307-.879-.7-1.642-1.156-2.254l.214.086zm-1.77 13.683c-.179.14-.358.248-.54.32v-3.623a7.6 7.6 0 012.26.512c-.162.48-.35.924-.567 1.324-.34.633-.738 1.139-1.152 1.467zM11.24 3.551c.215.402.405.845.567 1.324a7.6 7.6 0 01-2.26.512V1.766c.18.072.361.177.54.32.415.326.813.832 1.153 1.465zm-1.693 7.967V9.547h2.88a13.565 13.565 0 01-.318 2.496l-.005.023a8.692 8.692 0 00-2.557-.548zm0-3.065v-1.97a8.692 8.692 0 002.557-.55l.005.024c.18.795.287 1.63.319 2.496H9.547zM8.453 9.547v1.97a8.692 8.692 0 00-2.557.55l-.005-.024c-.18-.795-.287-1.63-.319-2.496h2.881zm-2.88-1.094c.03-.863.138-1.701.318-2.496l.005-.023c.803.304 1.66.494 2.557.548v1.971h-2.88zm2.88 4.16v3.621a2.185 2.185 0 01-.54-.32c-.415-.326-.815-.834-1.155-1.467a8.824 8.824 0 01-.567-1.324 7.623 7.623 0 012.262-.51zm0-7.226a7.6 7.6 0 01-2.26-.512c.162-.48.35-.924.567-1.324.34-.633.738-1.14 1.154-1.467.18-.14.36-.248.541-.32v3.623h-.002zm-2.31-3.155l.214-.086c-.457.612-.85 1.375-1.156 2.254a7.571 7.571 0 01-1.16-.816 7.301 7.301 0 012.102-1.352zm-3.91 3.91A7.334 7.334 0 013.29 4.382c.486.42 1.02.787 1.592 1.092a14.602 14.602 0 00-.404 2.98H1.676a7.302 7.302 0 01.556-2.31zm-.557 3.405h2.803c.037 1.058.177 2.064.404 2.98A8.673 8.673 0 003.29 13.62a7.302 7.302 0 01-1.615-4.072zm4.467 6.22a7.301 7.301 0 01-2.102-1.351 7.71 7.71 0 011.16-.816c.307.879.7 1.642 1.156 2.254a7.03 7.03 0 01-.214-.086zm5.714 0c-.072.03-.142.06-.214.087.457-.612.85-1.375 1.156-2.254.41.234.799.507 1.16.816a7.301 7.301 0 01-2.102 1.352z" /></svg>