<svg viewBox="0 0 20 20" xmlns="http://www.w3.org/2000/svg"><path d="M1.938 9.817A8.045 8.045 0 014.296 4.3a8.021 8.021 0 015.702-2.362A8.004 8.004 0 0115.696 4.3c.231.232.45.478.65.736l-1.41 1.101a.188.188 0 00.07.331l4.118 1.008a.188.188 0 00.232-.18l.019-4.24a.186.186 0 00-.302-.148L17.75 3.94A9.817 9.817 0 009.995.156C4.625.156.257 4.46.156 9.808A.188.188 0 00.344 10H1.75a.187.187 0 00.188-.183zM19.655 10H18.25a.187.187 0 00-.188.183 8.007 8.007 0 01-.63 2.953 8.02 8.02 0 01-1.727 2.564 8.026 8.026 0 01-5.703 2.363 8.021 8.021 0 01-6.351-3.099l1.41-1.101a.188.188 0 00-.07-.331L.873 12.524a.188.188 0 00-.232.18l-.016 4.243c0 .157.18.246.302.148L2.25 16.06a9.822 9.822 0 007.756 3.783c5.372 0 9.738-4.306 9.839-9.652a.188.188 0 00-.188-.192z" /></svg>