<svg width="283" height="283" viewBox="0 0 283 283" fill="none" xmlns="http://www.w3.org/2000/svg">
<g clip-path="url(#clip0_1_53)">
<g clip-path="url(#clip1_1_53)">
<path d="M174.585 276.172C136.39 282.546 95.852 271.178 65.8359 246.895C37.3028 223.813 19.5148 187.635 20.7889 150.735C22.0241 115.003 40.251 79.3067 70.6139 59.7526C101.649 39.7667 144.169 39.8622 175.013 60.2091C203.872 79.2465 219.823 116.33 210.076 150.073C205.037 167.525 193.895 183.607 178.039 192.834C161.536 202.439 140.662 204.4 122.775 197.58C106.693 191.447 92.9817 178.298 87.91 161.643C82.7073 144.563 87.0499 124.778 99.6849 111.998C111.902 99.6395 131.531 95.2119 147.408 102.913C162.481 110.222 171.772 128.211 166.19 144.517C163.182 153.304 156.072 160.836 146.997 163.335C137.477 165.957 126.562 162.552 120.669 154.511C114.904 146.647 115.378 135.035 122.782 128.36C126.512 124.998 131.98 123.303 136.882 124.768C138.333 125.2 144.785 126.771 144.166 129.047C144.474 126.739 139.42 126.145 137.954 125.741C133.389 124.481 128.282 125.755 124.792 128.941C118.637 134.554 117.731 144.722 122.679 151.379C127.694 158.125 137.197 161.009 145.146 158.355C153.24 155.647 158.86 147.691 160.17 139.441C162.81 122.797 146.679 108.441 130.713 109.114C113.817 109.825 100.46 124.591 98.4674 140.864C94.73 171.376 129.612 192.14 156.744 185.232C186.99 177.527 202.258 141.445 194.847 112.802C186.565 80.7896 152.762 60.9028 120.959 61.3311C86.3279 61.7947 56.2624 86.9195 43.2558 117.997C28.9645 152.147 35.4908 192.922 58.124 221.923C81.0758 251.33 118.043 268.332 154.928 270.282C175.335 271.362 196.511 268.382 215.109 259.644C232.646 251.404 246.633 237.495 257.495 221.654C279.802 189.114 288.151 147.55 279.208 109.022C263.848 42.8847 197.335 -5.4821 129.68 0.322197C63.2417 6.02032 6.57896 62.8317 0.905611 129.245C-2.34338 167.256 10.734 206.258 36.0429 234.774C61.0934 263.002 97.71 280.341 135.392 282.033C157.045 283.006 178.935 278.932 198.754 270.144C190.006 273.131 181.083 276.143 171.779 276.649C173.569 276.55 175.254 275.779 177.059 275.793C170.724 275.743 164.796 278.539 158.507 278.872C162.166 278.677 165.95 277.913 169.46 276.869C170.653 276.511 174.621 274.823 175.672 276.012C174.939 275.181 170.865 276.657 169.963 276.872C166.686 277.655 163.051 278.472 159.692 278.677C161.2 278.585 175.746 276.161 175.725 276.005C175.753 276.235 161.49 278.154 159.398 278.727C161.925 278.033 164.725 277.86 167.309 277.428C168.342 277.258 174.967 275.336 175.711 276.005C175.597 275.903 174.716 276.15 174.585 276.172C183.398 274.791 136.73 282.489 174.585 276.172Z" fill="white"/>
</g>
</g>
<defs>
<clipPath id="clip0_1_53">
<rect width="282.32" height="282.324" fill="white" transform="translate(0.41658 -0.149994)"/>
</clipPath>
<clipPath id="clip1_1_53">
<rect width="282.32" height="282.324" fill="white" transform="translate(0.41658 -0.149994)"/>
</clipPath>
</defs>
</svg>
