<svg width="34" height="30" xmlns="http://www.w3.org/2000/svg"><g fill-rule="nonzero" fill="none"><path d="M30.898 10.286l.09-.06c-.03.02-.06.05-.09.06z" fill="#EC1C24"/><g fill="#256EFF"><path d="M28.01 15.019H26.7c0 .56-.046 1.121-.12 1.663a11.6 11.6 0 01-.991 3.309l-.01.018-.084.169a11.65 11.65 0 01-6.533 5.813c-1.224.43-2.532.673-3.897.673h-.121l1.617-3.328 1.626-3.327 1.626-3.327.813-1.663.813-1.664.813-1.663H11.121l-.813 1.663-.813 1.664h7.402l-.813 1.663-1.626 3.327-1.626 3.327-1.337 2.767-.27.551-1.197 2.458a15 15 0 0011.365-.551 14.464 14.464 0 003.065-1.925 14.927 14.927 0 003.037-3.328c.318-.476.608-.972.879-1.486l.252-.514c.206-.43.383-.878.542-1.327.374-1.056.636-2.177.757-3.327.056-.542.094-1.103.094-1.663h-2.01v.028z"/><path d="M5.953 22.28c-.56-.7-1.037-1.458-1.43-2.27-.205-.421-.373-.86-.523-1.31a11.773 11.773 0 01-.598-3.681c0-.561.047-1.122.121-1.664.084-.57.206-1.121.365-1.663.168-.57.383-1.113.626-1.645l.01-.019.083-.168a11.593 11.593 0 012.29-3.15 11.65 11.65 0 014.243-2.654 11.733 11.733 0 013.897-.673h.122c1.196.01 2.346.206 3.43.552l.27-.552L20.057.925a15 15 0 00-11.364.552 14.464 14.464 0 00-3.066 1.925A14.927 14.927 0 002.59 6.729c-.318.477-.608.972-.879 1.486l-.252.514c-.206.43-.383.878-.542 1.327A16.241 16.241 0 00.43 11.72a16.255 16.255 0 00-.28 1.663 16.235 16.235 0 00-.094 1.664c0 .56.028 1.121.094 1.663.065.58.158 1.14.29 1.692.13.56.289 1.103.476 1.635.318.898.71 1.748 1.187 2.552a14.803 14.803 0 002.262 2.953c.401.402.822.785 1.261 1.15.44.355.907.691 1.393 1l.486-1 .981-2.02a12.667 12.667 0 01-1.598-1.308c-.318-.364-.636-.72-.935-1.084z"/></g><path d="M32.598 2.841c-.673-1.168-1.7-2-2.878-2.44a5.591 5.591 0 00-4.551 10.187c-.57.31-1.169.562-1.795.748.065.02.14.038.205.057a9.163 9.163 0 006.972-.916 5.591 5.591 0 002.047-7.636zm-1.514 3.86h-2.262v2.262h-2.121V6.7h-2.262V4.579h2.262V2.318h2.121v2.261h2.262v2.122z" fill="#FF2D31"/></g></svg>
