<svg width="821" height="617" viewBox="0 0 821 617" fill="none" xmlns="http://www.w3.org/2000/svg">
<g clip-path="url(#clip0_1_33)">
<g clip-path="url(#clip1_1_33)">
<g clip-path="url(#clip2_1_33)">
<g clip-path="url(#clip3_1_33)">
<g clip-path="url(#clip4_1_33)">
<g clip-path="url(#clip5_1_33)">
<g clip-path="url(#clip6_1_33)">
<path d="M79.13 431.646L100.202 428.012C102.47 427.62 104.897 427.699 107.473 428.246C110.052 428.795 112.615 429.622 115.161 430.729L115.028 430.754C117.601 432.021 119.736 433.89 121.434 436.358C123.112 438.828 124.252 441.815 124.856 445.318L131.301 482.688C132.544 489.891 131.091 495.607 126.945 499.837C122.876 503.98 118.518 506.453 113.869 507.252L92.7997 510.889C90.5118 511.284 88.1207 511.292 85.6261 510.911C83.1125 510.536 80.569 509.657 77.9929 508.281C72.6828 505.772 69.3993 500.873 68.1425 493.583L61.698 456.211C61.0941 452.707 61.1676 449.51 61.9211 446.621C62.691 443.727 64.0783 441.254 66.0778 439.198L65.9445 439.219C67.8841 437.34 69.9951 435.705 72.2747 434.317C74.5571 432.93 76.8422 432.038 79.13 431.646ZM93.0472 498.09L109.347 495.28C112.601 494.72 114.747 493.4 115.786 491.325C116.828 489.249 117.166 487.157 116.804 485.049L110.403 447.949C110.025 445.751 108.999 443.866 107.329 442.296C105.661 440.743 103.202 440.248 99.9514 440.808L83.6512 443.618C80.3976 444.179 78.2486 445.471 77.1985 447.492C76.1512 449.532 75.8166 451.651 76.1974 453.849L82.5957 490.949C82.9602 493.058 83.9803 494.916 85.656 496.523C87.3318 498.131 89.7964 498.653 93.0472 498.09ZM155.792 432.612L163.743 494.342C164.287 498.569 162.133 500.996 157.277 501.621C152.421 502.247 149.72 500.446 149.176 496.219L137.057 402.166C136.51 397.922 138.665 395.485 143.52 394.859C148.376 394.233 151.077 396.042 151.627 400.289L154.184 420.147L182.135 416.545C186.632 415.966 191.526 417.046 196.817 419.783C202.016 422.514 205.082 427.503 206.015 434.753L212.875 488.011C213.419 492.239 211.265 494.665 206.409 495.291C201.553 495.917 198.852 494.116 198.305 489.888L191.597 437.818C191.303 435.533 190.318 433.422 188.64 431.477L188.768 431.6C187.361 429.622 184.886 428.863 181.341 429.32L155.792 432.612ZM287.056 412.323L291.602 465.667C291.907 469.227 291.55 472.432 290.538 475.286C289.543 478.137 287.962 480.501 285.791 482.38L285.927 482.369C283.835 484.078 281.588 485.498 279.192 486.629C276.779 487.783 274.423 488.455 272.13 488.651L250.688 490.476C248.465 490.666 246.05 490.397 243.441 489.674C240.851 488.966 238.378 487.949 236.028 486.621L236.161 486.608C233.705 485.125 231.735 483.063 230.256 480.424C228.792 477.783 227.911 474.682 227.609 471.121L223.063 417.778C222.698 413.512 224.956 411.173 229.837 410.757C234.717 410.34 237.337 412.266 237.698 416.529L242.154 468.817C242.366 471.311 243.166 473.436 244.554 475.19C245.889 477.206 248.384 478.058 252.035 477.748L268.65 476.333C272.211 476.028 274.469 474.772 275.427 472.56L275.329 472.707C276.556 470.454 277.073 468.172 276.877 465.857L272.421 413.572C272.056 409.307 274.314 406.967 279.194 406.551C284.075 406.135 286.694 408.061 287.056 412.323ZM332.777 438.893L305.824 440.212C301.73 440.414 299.575 438.295 299.358 433.858C299.336 431.534 299.831 429.793 300.843 428.637C301.858 427.462 303.297 426.828 305.163 426.736L332.116 425.416C336.12 425.221 338.231 427.394 338.454 431.943C338.835 436.371 336.942 438.689 332.777 438.893ZM392.937 478.904L392.407 425.996C392.396 424.834 392.203 423.703 391.83 422.601C391.457 421.499 391 420.46 390.464 419.486C389.284 417.359 386.868 416.311 383.226 416.347L374.684 416.431C371.019 416.467 368.574 417.563 367.344 419.715C366.313 421.774 365.81 423.956 365.832 426.26L366.359 479.168C366.4 483.338 363.974 485.449 359.077 485.498C353.998 485.55 351.438 483.487 351.398 479.317L350.859 425.212C350.785 417.903 353.136 412.538 357.907 409.119C362.769 405.678 367.513 403.937 372.137 403.89L385.628 403.754C387.676 403.733 389.947 404.119 392.442 404.911C394.953 405.683 397.377 406.902 399.713 408.564C401.909 406.856 404.226 405.591 406.669 404.769C409.109 403.929 411.444 403.496 413.674 403.474L427.031 403.341C431.745 403.295 436.479 404.943 441.226 408.287C446.174 411.537 448.685 416.853 448.758 424.236L449.3 478.341C449.341 482.511 446.868 484.622 441.881 484.671C436.895 484.72 434.379 482.661 434.338 478.49L433.807 425.582C433.797 424.421 433.65 423.273 433.367 422.13C433.084 420.971 432.583 419.908 431.865 418.937L432.004 419.07C431.286 417.916 430.388 417.1 429.311 416.622C428.236 416.143 426.675 415.914 424.626 415.933L416.193 416.018C412.458 416.056 410.021 417.149 408.881 419.301C407.757 421.271 407.208 423.452 407.232 425.846L407.76 478.754C407.801 482.924 405.374 485.035 400.478 485.084C395.491 485.133 392.975 483.074 392.937 478.904ZM488.16 404.845L509.525 405.727C511.827 405.822 514.18 406.409 516.585 407.487C518.989 408.567 521.321 409.913 523.579 411.532L523.442 411.526C525.692 413.308 527.387 415.582 528.527 418.352C529.648 421.121 530.135 424.282 529.988 427.832L528.423 465.721C528.122 473.022 525.499 478.305 520.556 481.57C515.706 484.763 510.924 486.265 506.212 486.072L484.849 485.19C482.529 485.095 480.192 484.6 477.831 483.702C475.453 482.805 473.152 481.412 470.926 479.524C466.264 475.955 464.085 470.476 464.387 463.082L465.948 425.193C466.095 421.641 466.84 418.531 468.184 415.865C469.547 413.199 471.422 411.072 473.813 409.481L473.677 409.475C475.967 408.044 478.375 406.891 480.896 406.015C483.418 405.139 485.839 404.747 488.16 404.845ZM487.787 472.731L504.31 473.414C507.607 473.55 509.985 472.712 511.44 470.903C512.896 469.094 513.666 467.119 513.753 464.981L515.303 427.364C515.396 425.136 514.789 423.077 513.489 421.189C512.186 419.32 509.887 418.319 506.587 418.183L490.061 417.503C486.764 417.367 484.389 418.178 482.937 419.932C481.484 421.706 480.711 423.705 480.622 425.933L479.071 463.553C478.984 465.691 479.588 467.72 480.888 469.644C482.189 471.567 484.487 472.595 487.787 472.731ZM562.904 421.921L557.553 483.931C557.373 486.064 556.481 487.598 554.873 488.539C553.285 489.461 551.606 489.848 549.835 489.698C544.955 489.287 542.694 486.959 543.051 482.712L550.994 388.216C551.353 383.95 553.973 382.024 558.85 382.432C563.731 382.843 565.991 385.18 565.632 389.445L563.956 409.396L592.039 411.758C596.557 412.138 601.114 414.222 605.708 418.012C610.216 421.777 612.161 427.299 611.551 434.581L608.216 474.241C607.596 481.613 605.004 486.493 600.433 488.874C595.839 491.344 590.752 492.345 585.167 491.877L569.443 490.555C566.263 490.288 564.756 488.058 564.93 483.868C565.281 479.693 567.137 477.748 570.496 478.03L583.807 479.151C587.096 479.429 589.503 479.029 591.032 477.957C592.542 476.883 593.393 475.188 593.589 472.875L596.813 434.546C597.006 432.25 596.486 429.978 595.257 427.726L595.352 427.87C594.392 425.642 592.134 424.377 588.573 424.078L562.904 421.921ZM645.145 423.248L637.248 491.727C636.758 495.96 634.084 497.796 629.217 497.236C624.264 496.665 622.03 494.263 622.52 490.03L630.417 421.551C630.907 417.318 633.627 415.487 638.581 416.056C643.445 416.616 645.632 419.016 645.145 423.248ZM650.591 400.49C650.265 403.319 649.016 405.593 646.848 407.315C644.677 409.037 642.177 409.734 639.348 409.41C636.519 409.084 634.226 407.832 632.471 405.659C630.695 403.482 629.971 400.98 630.297 398.151C630.635 395.232 631.913 392.914 634.138 391.2C636.345 389.484 638.861 388.787 641.69 389.114C644.519 389.44 646.793 390.689 648.515 392.859C650.237 395.03 650.928 397.574 650.591 400.49ZM682.647 401.488L670.129 496.45C669.584 500.585 666.883 502.334 662.027 501.692C657.082 501.039 654.884 498.645 655.428 494.51L667.949 399.549C668.496 395.395 671.244 393.646 676.187 394.299C681.042 394.938 683.194 397.334 682.647 401.488ZM710.455 448.254L704.367 485.547C704.021 487.658 704.38 489.747 705.438 491.812C706.497 493.876 708.657 495.177 711.913 495.707L728.371 498.395C731.627 498.928 734.07 498.498 735.691 497.111C737.318 495.705 738.303 493.944 738.648 491.831L738.885 490.381C739.56 486.246 742.313 484.573 747.147 485.365C751.978 486.153 754.059 488.615 753.382 492.75L753.123 494.333C752.522 498.02 751.437 500.957 749.867 503.145C748.3 505.315 746.184 507.081 743.515 508.447C738.314 511.034 733.387 511.948 728.735 511.189L706.586 507.573C701.932 506.814 697.677 504.401 693.82 500.335C691.995 498.234 690.727 495.751 690.02 492.878C689.329 490.027 689.269 486.839 689.846 483.313L695.977 445.754C697.141 438.629 700.194 433.716 705.136 431.012C707.596 429.796 710.063 428.912 712.544 428.363C715.022 427.813 717.362 427.715 719.565 428.077L741.714 431.692C743.809 432.035 746.067 432.835 748.488 434.094C750.893 435.351 753.08 436.855 755.055 438.613C756.921 440.46 758.276 442.805 759.116 445.642C759.957 448.479 760.082 451.709 759.492 455.324L756.592 473.096C756.262 475.117 755.376 476.831 753.934 478.229C752.495 479.611 750.193 480.044 747.024 479.527L718.54 474.878C715.389 474.363 714.062 472.024 714.557 467.859C715.229 463.743 717.228 461.956 720.558 462.5L742.976 466.159L744.845 453.868C745.204 451.668 744.851 449.559 743.784 447.549C742.718 445.52 740.558 444.238 737.299 443.705L720.841 441.02C717.585 440.487 715.128 441.015 713.472 442.601C711.82 444.168 710.814 446.053 710.455 448.254Z" fill="#333333"/>
</g>
</g>
<g clip-path="url(#clip7_1_33)">
<g clip-path="url(#clip8_1_33)">
<path d="M247.544 550.92H247.609L258.815 526.148C259.476 524.748 259.972 523.861 260.302 523.487C261.006 522.869 261.721 522.56 262.446 522.56C263.165 522.56 263.721 522.643 264.116 522.808C264.504 522.973 264.846 523.2 265.14 523.487C265.837 524.191 266.185 525.121 266.185 526.278V554.519C266.185 555.137 265.991 555.6 265.603 555.909C265.208 556.218 264.763 556.373 264.267 556.373C263.772 556.373 263.337 556.218 262.964 555.909C262.597 555.6 262.414 555.137 262.414 554.519V526.773L250.152 553.776C249.656 555.011 248.787 555.629 247.544 555.629C246.474 555.629 245.63 555.011 245.012 553.776L232.815 526.892V554.519C232.815 555.137 232.617 555.6 232.222 555.909C231.827 556.218 231.382 556.373 230.886 556.373C230.39 556.373 229.949 556.218 229.561 555.909C229.166 555.6 228.968 555.137 228.968 554.519V526.278C228.968 524.46 229.629 523.304 230.951 522.808C231.403 522.729 231.87 522.668 232.352 522.625C232.826 522.582 233.257 522.621 233.645 522.744C234.04 522.873 234.381 523.06 234.668 523.304C235.164 523.721 235.782 524.669 236.522 526.148L247.544 550.92ZM272.693 544.671C272.693 543.184 272.93 541.697 273.405 540.21C273.879 538.723 274.611 537.38 275.603 536.18C277.664 533.666 280.595 532.409 284.395 532.409C288.188 532.409 291.119 533.666 293.188 536.18C295.127 538.579 296.097 541.388 296.097 544.606C296.097 547.867 295.127 550.676 293.188 553.032C291.119 555.59 288.188 556.868 284.395 556.868C280.595 556.868 277.664 555.59 275.603 553.032C273.663 550.719 272.693 547.932 272.693 544.671ZM276.713 544.671C276.713 545.662 276.845 546.715 277.111 547.828C277.384 548.941 277.869 549.972 278.566 550.92C279.974 552.946 281.917 553.959 284.395 553.959C286.996 553.959 288.935 552.946 290.214 550.92C291.413 549.024 292.013 546.919 292.013 544.606C292.013 542.214 291.413 540.149 290.214 538.411C288.892 536.349 286.952 535.318 284.395 535.318C281.917 535.318 279.974 536.349 278.566 538.411C277.33 540.106 276.713 542.193 276.713 544.671ZM313.499 556.868C309.778 556.868 306.908 555.342 304.889 552.289V554.702C304.846 555.241 304.649 555.654 304.297 555.942C303.945 556.229 303.532 556.373 303.058 556.373C302.584 556.373 302.16 556.218 301.786 555.909C301.42 555.6 301.237 555.177 301.237 554.638V524.414C301.237 523.839 301.441 523.408 301.851 523.121C302.267 522.833 302.724 522.69 303.219 522.69C303.715 522.69 304.146 522.823 304.512 523.088C304.886 523.354 305.073 523.796 305.073 524.414V536.676C305.812 535.318 307.008 534.248 308.661 533.465C310.069 532.761 311.649 532.409 313.402 532.409C315.154 532.409 316.663 532.75 317.927 533.432C319.184 534.115 320.183 535.013 320.923 536.126C322.575 538.31 323.401 541.137 323.401 544.606C323.401 547.99 322.618 550.798 321.052 553.032C319.235 555.59 316.717 556.868 313.499 556.868ZM305.073 544.294C305.073 545.536 305.195 546.765 305.439 547.979C305.69 549.2 306.125 550.224 306.743 551.05C308.021 552.989 310.025 553.959 312.755 553.959C315.808 553.959 317.83 552.224 318.822 548.755C319.152 547.519 319.328 546.187 319.35 544.757C319.371 543.335 319.256 542.099 319.005 541.05C318.76 539.994 318.391 539.032 317.895 538.163C316.652 536.266 314.813 535.318 312.378 535.318C309.864 535.318 307.985 536.205 306.743 537.98C305.629 539.51 305.073 541.614 305.073 544.294ZM333.497 524.662C333.497 525.322 333.267 525.861 332.808 526.278C332.355 526.687 331.716 526.892 330.89 526.892C330.064 526.892 329.424 526.687 328.972 526.278C328.519 525.861 328.293 525.322 328.293 524.662C328.293 524.087 328.519 523.595 328.972 523.185C329.424 522.769 330.074 522.56 330.922 522.56C331.77 522.56 332.409 522.769 332.84 523.185C333.278 523.595 333.497 524.087 333.497 524.662ZM329.036 554.519V534.822C329.036 534.205 329.241 533.72 329.65 533.368C330.067 533.016 330.441 532.84 330.771 532.84C331.102 532.84 331.371 532.89 331.579 532.991C331.78 533.098 331.985 533.256 332.193 533.465C332.646 533.752 332.872 534.205 332.872 534.822V554.519C332.872 555.137 332.668 555.6 332.258 555.909C331.841 556.218 331.385 556.373 330.89 556.373C330.394 556.373 329.963 556.218 329.597 555.909C329.223 555.6 329.036 555.137 329.036 554.519ZM340.178 554.519V524.543C340.178 523.882 340.386 523.408 340.803 523.121C341.212 522.833 341.582 522.69 341.913 522.69C342.243 522.69 342.512 522.708 342.721 522.744C342.922 522.787 343.127 522.912 343.335 523.121C343.787 523.408 344.014 523.882 344.014 524.543V554.519C344.014 555.137 343.809 555.6 343.399 555.909C342.99 556.218 342.537 556.373 342.042 556.373C341.546 556.373 341.112 556.218 340.738 555.909C340.365 555.6 340.178 555.137 340.178 554.519ZM372.255 543.927C372.255 544.797 371.76 545.271 370.768 545.35H353.797C353.963 549.559 355.615 552.285 358.754 553.528C359.623 553.815 360.614 553.959 361.728 553.959C364.041 553.959 366.394 553.111 368.786 551.416C369.525 551.007 370.143 551.05 370.639 551.545C370.89 551.79 370.973 552.037 370.887 552.289C370.887 552.864 370.743 553.277 370.456 553.528C368.186 555.798 365.194 556.911 361.48 556.868C358.097 556.868 355.371 555.773 353.302 553.582C350.989 551.312 349.832 548.32 349.832 544.606C349.832 541.18 350.784 538.353 352.688 536.126C354.67 533.648 357.475 532.409 361.103 532.409C364.738 532.409 367.507 533.501 369.411 535.684C371.221 537.667 372.169 540.415 372.255 543.927ZM353.927 542.807H368.602C368.48 540.58 367.758 538.745 366.437 537.301C365.194 535.979 363.416 535.318 361.103 535.318C359.128 535.318 357.436 536.062 356.028 537.549C354.749 539.035 354.049 540.788 353.927 542.807ZM391.262 544.606V524.608C391.262 523.99 391.428 523.555 391.758 523.304C392.29 522.808 392.836 522.56 393.396 522.56C393.956 522.56 394.452 522.726 394.883 523.056C395.314 523.386 395.529 523.904 395.529 524.608V544.606C395.529 547.415 396.46 549.645 398.32 551.298C399.972 552.698 402.016 553.399 404.451 553.399C406.929 553.399 408.973 552.698 410.582 551.298C412.435 549.724 413.362 547.494 413.362 544.606V524.608C413.362 523.99 413.549 523.555 413.922 523.304C414.418 522.808 414.946 522.56 415.506 522.56C416.059 522.56 416.555 522.726 416.993 523.056C417.424 523.386 417.64 523.904 417.64 524.608V544.606C417.64 548.571 416.318 551.689 413.675 553.959C411.282 555.942 408.208 556.911 404.451 556.868C400.737 556.868 397.663 555.898 395.228 553.959C392.584 551.689 391.262 548.571 391.262 544.606ZM426.928 554.325V524.608C426.928 523.738 427.341 523.117 428.167 522.744C428.411 522.708 428.76 522.668 429.212 522.625C429.672 522.582 430.096 522.726 430.484 523.056C430.879 523.386 431.076 523.904 431.076 524.608V554.325C431.076 555.317 430.642 555.96 429.773 556.254C429.528 556.333 429.198 556.373 428.781 556.373C428.372 556.373 427.959 556.207 427.542 555.877C427.133 555.546 426.928 555.029 426.928 554.325ZM459.986 526.095H450.762C450.145 526.095 449.692 525.908 449.405 525.534C449.11 525.161 448.963 524.759 448.963 524.328C448.963 523.897 449.11 523.494 449.405 523.121C449.692 522.747 450.145 522.56 450.762 522.56H473.368C473.943 522.56 474.374 522.747 474.661 523.121C474.956 523.494 475.103 523.897 475.103 524.328C475.103 524.759 474.949 525.161 474.64 525.534C474.324 525.908 473.9 526.095 473.368 526.095H464.199V554.325C464.199 555.281 463.786 555.924 462.96 556.254C462.716 556.333 462.385 556.373 461.968 556.373C461.559 556.373 461.128 556.207 460.675 555.877C460.216 555.546 459.986 555.029 459.986 554.325V526.095ZM477.7 544.671C477.7 543.184 477.937 541.697 478.411 540.21C478.885 538.723 479.618 537.38 480.609 536.18C482.671 533.666 485.602 532.409 489.402 532.409C493.202 532.409 496.133 533.666 498.194 536.18C500.134 538.579 501.104 541.388 501.104 544.606C501.104 547.867 500.134 550.676 498.194 553.032C496.133 555.59 493.202 556.868 489.402 556.868C485.602 556.868 482.671 555.59 480.609 553.032C478.67 550.719 477.7 547.932 477.7 544.671ZM481.719 544.671C481.719 545.662 481.856 546.715 482.129 547.828C482.394 548.941 482.879 549.972 483.583 550.92C484.984 552.946 486.924 553.959 489.402 553.959C492.002 553.959 493.942 552.946 495.22 550.92C496.42 549.024 497.02 546.919 497.02 544.606C497.02 542.214 496.42 540.149 495.22 538.411C493.899 536.349 491.959 535.318 489.402 535.318C486.924 535.318 484.984 536.349 483.583 538.411C482.341 540.106 481.719 542.193 481.719 544.671ZM505.069 544.671C505.069 543.184 505.306 541.697 505.78 540.21C506.254 538.723 506.987 537.38 507.978 536.18C510.04 533.666 512.97 532.409 516.77 532.409C520.57 532.409 523.501 533.666 525.563 536.18C527.502 538.579 528.472 541.388 528.472 544.606C528.472 547.867 527.502 550.676 525.563 553.032C523.501 555.59 520.57 556.868 516.77 556.868C512.97 556.868 510.04 555.59 507.978 553.032C506.038 550.719 505.069 547.932 505.069 544.671ZM509.088 544.671C509.088 545.662 509.224 546.715 509.497 547.828C509.763 548.941 510.248 549.972 510.952 550.92C512.353 552.946 514.292 553.959 516.77 553.959C519.371 553.959 521.31 552.946 522.589 550.92C523.789 549.024 524.388 546.919 524.388 544.606C524.388 542.214 523.789 540.149 522.589 538.411C521.267 536.349 519.328 535.318 516.77 535.318C514.292 535.318 512.353 536.349 510.952 538.411C509.709 540.106 509.088 542.193 509.088 544.671ZM534.108 554.519V524.543C534.108 523.882 534.312 523.408 534.722 523.121C535.138 522.833 535.512 522.69 535.842 522.69C536.173 522.69 536.442 522.708 536.65 522.744C536.852 522.787 537.056 522.912 537.265 523.121C537.717 523.408 537.943 523.882 537.943 524.543V554.519C537.943 555.137 537.739 555.6 537.329 555.909C536.913 556.218 536.457 556.373 535.961 556.373C535.465 556.373 535.034 556.218 534.668 555.909C534.294 555.6 534.108 555.137 534.108 554.519ZM560.851 555.758L549.214 543.744V554.519C549.214 555.137 549.017 555.6 548.622 555.909C548.234 556.218 547.803 556.373 547.329 556.373C546.854 556.373 546.431 556.218 546.057 555.909C545.684 555.6 545.497 555.137 545.497 554.519V524.543C545.497 523.882 545.684 523.408 546.057 523.121C546.431 522.833 546.801 522.69 547.167 522.69C547.54 522.69 547.842 522.708 548.072 522.744C548.295 522.787 548.51 522.912 548.719 523.121C549.049 523.408 549.214 523.882 549.214 524.543V542.44L559.925 533.465C560.298 533.048 560.69 532.84 561.099 532.84C561.559 532.84 561.961 533.005 562.306 533.335C562.658 533.666 562.834 533.975 562.834 534.262C562.834 534.801 562.669 535.192 562.338 535.437L553.179 543.119L563.577 553.646C563.829 553.898 563.955 554.196 563.955 554.541C563.955 554.893 563.901 555.162 563.793 555.349C563.692 555.536 563.538 555.712 563.33 555.877C562.92 556.207 562.507 556.373 562.09 556.373C561.681 556.373 561.268 556.168 560.851 555.758ZM573.113 524.662C573.113 525.322 572.887 525.861 572.435 526.278C571.982 526.687 571.343 526.892 570.517 526.892C569.69 526.892 569.051 526.687 568.599 526.278C568.139 525.861 567.909 525.322 567.909 524.662C567.909 524.087 568.139 523.595 568.599 523.185C569.051 522.769 569.701 522.56 570.549 522.56C571.389 522.56 572.029 522.769 572.467 523.185C572.898 523.595 573.113 524.087 573.113 524.662ZM568.652 554.519V534.822C568.652 534.205 568.861 533.72 569.277 533.368C569.687 533.016 570.057 532.84 570.387 532.84C570.718 532.84 570.987 532.89 571.195 532.991C571.404 533.098 571.608 533.256 571.81 533.465C572.269 533.752 572.499 534.205 572.499 534.822V554.519C572.499 555.137 572.291 555.6 571.874 555.909C571.465 556.218 571.012 556.373 570.517 556.373C570.021 556.373 569.586 556.218 569.213 555.909C568.839 555.6 568.652 555.137 568.652 554.519ZM592.185 555.015C592.185 556.25 590.72 556.868 587.789 556.868C585.598 556.868 584.05 556.268 583.145 555.069C582.154 553.79 581.615 551.685 581.529 548.755V535.749H578.813C578.318 535.749 577.923 535.595 577.628 535.286C577.341 534.977 577.197 534.657 577.197 534.327C577.197 533.996 577.323 533.666 577.574 533.335C577.818 533.005 578.231 532.84 578.813 532.84H581.776L582.024 526.148C582.111 525.653 582.34 525.272 582.714 525.006C583.08 524.741 583.472 524.608 583.888 524.608C584.298 524.608 584.65 524.73 584.944 524.974C585.232 525.225 585.375 525.617 585.375 526.148V532.84H589.642C590.138 532.84 590.522 533.005 590.795 533.335C591.061 533.666 591.194 533.996 591.194 534.327C591.194 534.736 591.061 535.077 590.795 535.35C590.522 535.616 590.138 535.749 589.642 535.749H585.375V546.707C585.375 549.767 585.476 551.617 585.677 552.257C585.885 552.896 586.216 553.338 586.668 553.582C587.128 553.833 587.688 553.959 588.349 553.959L590.763 553.776C591.215 553.776 591.564 553.919 591.808 554.207C592.06 554.494 592.185 554.764 592.185 555.015Z" fill="#999999"/>
</g>
</g>
</g>
</g>
<g clip-path="url(#clip9_1_33)">
<g clip-path="url(#clip10_1_33)">
<path d="M443.585 336.172C405.39 342.546 364.852 331.178 334.836 306.895C306.303 283.813 288.515 247.635 289.789 210.735C291.024 175.003 309.251 139.307 339.614 119.753C370.649 99.7667 413.169 99.8622 444.013 120.209C472.872 139.247 488.823 176.33 479.076 210.073C474.037 227.525 462.895 243.607 447.039 252.834C430.536 262.439 409.662 264.4 391.775 257.58C375.693 251.447 361.982 238.298 356.91 221.643C351.707 204.563 356.05 184.778 368.685 171.998C380.902 159.639 400.531 155.212 416.408 162.913C431.481 170.222 440.772 188.211 435.19 204.517C432.182 213.304 425.072 220.836 415.997 223.335C406.477 225.957 395.562 222.552 389.669 214.511C383.904 206.647 384.378 195.035 391.782 188.36C395.512 184.998 400.98 183.303 405.882 184.768C407.333 185.2 413.785 186.771 413.166 189.047C413.474 186.739 408.42 186.145 406.954 185.741C402.389 184.481 397.282 185.755 393.792 188.941C387.637 194.554 386.731 204.722 391.679 211.379C396.694 218.125 406.197 221.009 414.146 218.355C422.24 215.647 427.86 207.691 429.17 199.441C431.81 182.797 415.679 168.441 399.713 169.114C382.817 169.825 369.46 184.591 367.467 200.864C363.73 231.376 398.612 252.14 425.744 245.232C455.99 237.527 471.258 201.445 463.847 172.802C455.565 140.79 421.762 120.903 389.959 121.331C355.328 121.795 325.262 146.92 312.256 177.997C297.964 212.147 304.491 252.922 327.124 281.923C350.076 311.33 387.043 328.332 423.928 330.282C444.335 331.362 465.511 328.382 484.109 319.644C501.646 311.404 515.633 297.495 526.495 281.654C548.802 249.114 557.151 207.55 548.208 169.022C532.848 102.885 466.335 54.5179 398.68 60.3222C332.242 66.0203 275.579 122.832 269.906 189.245C266.657 227.256 279.734 266.258 305.043 294.774C330.093 323.002 366.71 340.341 404.392 342.033C426.045 343.006 447.935 338.932 467.754 330.144C459.006 333.131 450.083 336.143 440.779 336.649C442.569 336.55 444.254 335.779 446.059 335.793C439.724 335.743 433.796 338.539 427.507 338.872C431.166 338.677 434.95 337.913 438.46 336.869C439.653 336.511 443.621 334.823 444.672 336.012C443.939 335.181 439.865 336.657 438.963 336.872C435.686 337.655 432.051 338.472 428.692 338.677C430.2 338.585 444.746 336.161 444.725 336.005C444.753 336.235 430.49 338.154 428.398 338.727C430.925 338.033 433.725 337.86 436.309 337.428C437.342 337.258 443.967 335.336 444.711 336.005C444.597 335.903 443.716 336.15 443.585 336.172C452.398 334.791 405.73 342.489 443.585 336.172Z" fill="#2D7EFF"/>
</g>
</g>
</g>
</g>
</g>
<defs>
<clipPath id="clip0_1_33">
<rect width="700" height="496.3" fill="white" transform="translate(60.5762 60.2098)"/>
</clipPath>
<clipPath id="clip1_1_33">
<rect width="698.564" height="497.018" fill="white" transform="translate(61.2946 59.85)"/>
</clipPath>
<clipPath id="clip2_1_33">
<rect width="698.564" height="497.018" fill="white" transform="translate(61.2946 59.85)"/>
</clipPath>
<clipPath id="clip3_1_33">
<rect width="698.564" height="174.489" fill="white" transform="translate(61.2946 382.379)"/>
</clipPath>
<clipPath id="clip4_1_33">
<rect width="698.564" height="174.489" fill="white" transform="translate(61.2946 382.379)"/>
</clipPath>
<clipPath id="clip5_1_33">
<rect width="698.564" height="129.069" fill="white" transform="translate(61.2946 382.379)"/>
</clipPath>
<clipPath id="clip6_1_33">
<rect width="698.564" height="129.069" fill="white" transform="translate(61.2946 382.379)"/>
</clipPath>
<clipPath id="clip7_1_33">
<rect width="363.253" height="34.3078" fill="white" transform="translate(228.95 522.56)"/>
</clipPath>
<clipPath id="clip8_1_33">
<rect width="363.253" height="34.3078" fill="white" transform="translate(228.95 522.56)"/>
</clipPath>
<clipPath id="clip9_1_33">
<rect width="282.32" height="282.324" fill="white" transform="translate(269.417 59.85)"/>
</clipPath>
<clipPath id="clip10_1_33">
<rect width="282.32" height="282.324" fill="white" transform="translate(269.417 59.85)"/>
</clipPath>
</defs>
</svg>
