<svg width="701" height="497" viewBox="0 0 701 497" fill="none" xmlns="http://www.w3.org/2000/svg">
<g clip-path="url(#clip0_1_34)">
<g clip-path="url(#clip1_1_34)">
<g clip-path="url(#clip2_1_34)">
<g clip-path="url(#clip3_1_34)">
<g clip-path="url(#clip4_1_34)">
<g clip-path="url(#clip5_1_34)">
<g clip-path="url(#clip6_1_34)">
<path d="M19.13 371.646L40.2017 368.012C42.4704 367.62 44.897 367.699 47.4731 368.246C50.052 368.795 52.6146 369.622 55.1608 370.729L55.0275 370.754C57.601 372.021 59.7364 373.89 61.4339 376.358C63.1124 378.828 64.2522 381.815 64.8561 385.318L71.3006 422.688C72.5438 429.891 71.0911 435.607 66.9453 439.837C62.8757 443.98 58.5177 446.453 53.8687 447.252L32.7997 450.889C30.5118 451.284 28.1207 451.292 25.6261 450.911C23.1125 450.536 20.569 449.657 17.9929 448.281C12.6828 445.772 9.39932 440.873 8.14252 433.583L1.69805 396.211C1.09413 392.707 1.16758 389.51 1.92111 386.621C2.69097 383.727 4.07834 381.254 6.07779 379.198L5.94449 379.219C7.88409 377.34 9.99507 375.705 12.2747 374.317C14.5571 372.93 16.8422 372.038 19.13 371.646ZM33.0472 438.09L49.3475 435.28C52.601 434.72 54.7473 433.4 55.7865 431.325C56.8284 429.249 57.1657 427.157 56.8039 425.049L50.403 387.949C50.0248 385.751 48.9993 383.866 47.329 382.296C45.6614 380.743 43.2022 380.248 39.9514 380.808L23.6512 383.618C20.3976 384.179 18.2486 385.471 17.1985 387.492C16.1512 389.532 15.8166 391.651 16.1974 393.849L22.5957 430.949C22.9602 433.058 23.9803 434.916 25.656 436.523C27.3318 438.131 29.7964 438.653 33.0472 438.09ZM95.7918 372.612L103.743 434.342C104.287 438.569 102.133 440.996 97.2771 441.621C92.4213 442.247 89.72 440.446 89.1759 436.219L77.0568 342.166C76.51 337.922 78.6645 335.485 83.5203 334.859C88.3761 334.233 91.0774 336.042 91.6269 340.289L94.184 360.147L122.135 356.545C126.632 355.966 131.526 357.046 136.817 359.783C142.016 362.514 145.082 367.503 146.015 374.753L152.875 428.011C153.419 432.239 151.265 434.665 146.409 435.291C141.553 435.917 138.852 434.116 138.305 429.888L131.597 377.818C131.303 375.533 130.318 373.422 128.64 371.477L128.768 371.6C127.361 369.622 124.886 368.863 121.341 369.32L95.7918 372.612ZM227.056 352.323L231.602 405.667C231.907 409.227 231.55 412.432 230.538 415.286C229.543 418.137 227.962 420.501 225.791 422.38L225.927 422.369C223.835 424.078 221.588 425.498 219.192 426.629C216.779 427.783 214.423 428.455 212.13 428.651L190.688 430.476C188.465 430.666 186.05 430.397 183.441 429.674C180.851 428.966 178.378 427.949 176.028 426.621L176.161 426.608C173.705 425.125 171.735 423.063 170.256 420.424C168.792 417.783 167.911 414.682 167.609 411.121L163.063 357.778C162.698 353.512 164.956 351.173 169.837 350.757C174.717 350.34 177.337 352.266 177.698 356.529L182.154 408.817C182.366 411.311 183.166 413.436 184.554 415.19C185.889 417.206 188.384 418.058 192.035 417.748L208.65 416.333C212.211 416.028 214.469 414.772 215.427 412.56L215.329 412.707C216.556 410.454 217.073 408.172 216.877 405.857L212.421 353.572C212.056 349.307 214.314 346.967 219.194 346.551C224.075 346.135 226.694 348.061 227.056 352.323ZM272.777 378.893L245.824 380.212C241.73 380.414 239.575 378.295 239.358 373.858C239.336 371.534 239.831 369.793 240.843 368.637C241.858 367.462 243.297 366.828 245.163 366.736L272.116 365.416C276.12 365.221 278.231 367.394 278.454 371.943C278.835 376.371 276.942 378.689 272.777 378.893ZM332.937 418.904L332.407 365.996C332.396 364.834 332.203 363.703 331.83 362.601C331.457 361.499 331 360.46 330.464 359.486C329.284 357.359 326.868 356.311 323.226 356.347L314.684 356.431C311.019 356.467 308.574 357.563 307.344 359.715C306.313 361.774 305.81 363.956 305.832 366.26L306.359 419.168C306.4 423.338 303.974 425.449 299.077 425.498C293.998 425.55 291.438 423.487 291.398 419.317L290.859 365.212C290.785 357.903 293.136 352.538 297.907 349.119C302.769 345.678 307.513 343.937 312.137 343.89L325.628 343.754C327.676 343.733 329.947 344.119 332.442 344.911C334.953 345.683 337.377 346.902 339.713 348.564C341.909 346.856 344.226 345.591 346.669 344.769C349.109 343.929 351.444 343.496 353.674 343.474L367.031 343.341C371.745 343.295 376.479 344.943 381.226 348.287C386.174 351.537 388.685 356.853 388.758 364.236L389.3 418.341C389.341 422.511 386.868 424.622 381.881 424.671C376.895 424.72 374.379 422.661 374.338 418.49L373.807 365.582C373.797 364.421 373.65 363.273 373.367 362.13C373.084 360.971 372.583 359.908 371.865 358.937L372.004 359.07C371.286 357.916 370.388 357.1 369.311 356.622C368.236 356.143 366.675 355.914 364.626 355.933L356.193 356.018C352.458 356.056 350.021 357.149 348.881 359.301C347.757 361.271 347.208 363.452 347.232 365.846L347.76 418.754C347.801 422.924 345.374 425.035 340.478 425.084C335.491 425.133 332.975 423.074 332.937 418.904ZM428.16 344.845L449.525 345.727C451.827 345.822 454.18 346.409 456.585 347.487C458.989 348.567 461.321 349.913 463.579 351.532L463.442 351.526C465.692 353.308 467.387 355.582 468.527 358.352C469.648 361.121 470.135 364.282 469.988 367.832L468.423 405.721C468.122 413.022 465.499 418.305 460.556 421.57C455.706 424.763 450.924 426.265 446.212 426.072L424.849 425.19C422.529 425.095 420.192 424.6 417.831 423.702C415.453 422.805 413.152 421.412 410.926 419.524C406.264 415.955 404.085 410.476 404.387 403.082L405.948 365.193C406.095 361.641 406.84 358.531 408.184 355.865C409.547 353.199 411.422 351.072 413.813 349.481L413.677 349.475C415.967 348.044 418.375 346.891 420.896 346.015C423.418 345.139 425.839 344.747 428.16 344.845ZM427.787 412.731L444.31 413.414C447.607 413.55 449.985 412.712 451.44 410.903C452.896 409.094 453.666 407.119 453.753 404.981L455.303 367.364C455.396 365.136 454.789 363.077 453.489 361.189C452.186 359.32 449.887 358.319 446.587 358.183L430.061 357.503C426.764 357.367 424.389 358.178 422.937 359.932C421.484 361.706 420.711 363.705 420.622 365.933L419.071 403.553C418.984 405.691 419.588 407.72 420.888 409.644C422.189 411.567 424.487 412.595 427.787 412.731ZM502.904 361.921L497.553 423.931C497.373 426.064 496.481 427.598 494.873 428.539C493.285 429.461 491.606 429.848 489.835 429.698C484.955 429.287 482.694 426.959 483.051 422.712L490.994 328.216C491.353 323.95 493.973 322.024 498.85 322.432C503.731 322.843 505.991 325.18 505.632 329.445L503.956 349.396L532.039 351.758C536.557 352.138 541.114 354.222 545.708 358.012C550.216 361.777 552.161 367.299 551.551 374.581L548.216 414.241C547.596 421.613 545.004 426.493 540.433 428.874C535.839 431.344 530.752 432.345 525.167 431.877L509.443 430.555C506.263 430.288 504.756 428.058 504.93 423.868C505.281 419.693 507.137 417.748 510.496 418.03L523.807 419.151C527.096 419.429 529.503 419.029 531.032 417.957C532.542 416.883 533.393 415.188 533.589 412.875L536.813 374.546C537.006 372.25 536.486 369.978 535.257 367.726L535.352 367.87C534.392 365.642 532.134 364.377 528.573 364.078L502.904 361.921ZM585.145 363.248L577.248 431.727C576.758 435.96 574.084 437.796 569.217 437.236C564.264 436.665 562.03 434.263 562.52 430.03L570.417 361.551C570.907 357.318 573.627 355.487 578.581 356.056C583.445 356.616 585.632 359.016 585.145 363.248ZM590.591 340.49C590.265 343.319 589.016 345.593 586.848 347.315C584.677 349.037 582.177 349.734 579.348 349.41C576.519 349.084 574.226 347.832 572.471 345.659C570.695 343.482 569.971 340.98 570.297 338.151C570.635 335.232 571.913 332.914 574.138 331.2C576.345 329.484 578.861 328.787 581.69 329.114C584.519 329.44 586.793 330.689 588.515 332.859C590.237 335.03 590.928 337.574 590.591 340.49ZM622.647 341.488L610.129 436.45C609.584 440.585 606.883 442.334 602.027 441.692C597.082 441.039 594.884 438.645 595.428 434.51L607.949 339.549C608.496 335.395 611.244 333.646 616.187 334.299C621.042 334.938 623.194 337.334 622.647 341.488ZM650.455 388.254L644.367 425.547C644.021 427.658 644.38 429.747 645.438 431.812C646.497 433.876 648.657 435.177 651.913 435.707L668.371 438.395C671.627 438.928 674.07 438.498 675.691 437.111C677.318 435.705 678.303 433.944 678.648 431.831L678.885 430.381C679.56 426.246 682.313 424.573 687.147 425.365C691.978 426.153 694.059 428.615 693.382 432.75L693.123 434.333C692.522 438.02 691.437 440.957 689.867 443.145C688.3 445.315 686.184 447.081 683.515 448.447C678.314 451.034 673.387 451.948 668.735 451.189L646.586 447.573C641.932 446.814 637.677 444.401 633.82 440.335C631.995 438.234 630.727 435.751 630.02 432.878C629.329 430.027 629.269 426.839 629.846 423.313L635.977 385.754C637.141 378.629 640.194 373.716 645.136 371.012C647.596 369.796 650.063 368.912 652.544 368.363C655.022 367.813 657.362 367.715 659.565 368.077L681.714 371.692C683.809 372.035 686.067 372.835 688.488 374.094C690.893 375.351 693.08 376.855 695.055 378.613C696.921 380.46 698.276 382.805 699.116 385.642C699.957 388.479 700.082 391.709 699.492 395.324L696.592 413.096C696.262 415.117 695.376 416.831 693.934 418.229C692.495 419.611 690.193 420.044 687.024 419.527L658.54 414.878C655.389 414.363 654.062 412.024 654.557 407.859C655.229 403.743 657.228 401.956 660.558 402.5L682.976 406.159L684.845 393.868C685.204 391.668 684.851 389.559 683.784 387.549C682.718 385.52 680.558 384.238 677.299 383.705L660.841 381.02C657.585 380.487 655.128 381.015 653.472 382.601C651.82 384.168 650.814 386.053 650.455 388.254Z" fill="#333333"/>
</g>
</g>
</g>
</g>
<g clip-path="url(#clip7_1_34)">
<g clip-path="url(#clip8_1_34)">
<path d="M383.585 276.172C345.39 282.546 304.852 271.178 274.836 246.895C246.303 223.813 228.515 187.635 229.789 150.735C231.024 115.003 249.251 79.3067 279.614 59.7526C310.649 39.7667 353.169 39.8622 384.013 60.2091C412.872 79.2465 428.823 116.33 419.076 150.073C414.037 167.525 402.895 183.607 387.039 192.834C370.536 202.439 349.662 204.4 331.775 197.58C315.693 191.447 301.982 178.298 296.91 161.643C291.707 144.563 296.05 124.778 308.685 111.998C320.902 99.6395 340.531 95.2119 356.408 102.913C371.481 110.222 380.772 128.211 375.19 144.517C372.182 153.304 365.072 160.836 355.997 163.335C346.477 165.957 335.562 162.552 329.669 154.511C323.904 146.647 324.378 135.035 331.782 128.36C335.512 124.998 340.98 123.303 345.882 124.768C347.333 125.2 353.785 126.771 353.166 129.047C353.474 126.739 348.42 126.145 346.954 125.741C342.389 124.481 337.282 125.755 333.792 128.941C327.637 134.554 326.731 144.722 331.679 151.379C336.694 158.125 346.197 161.009 354.146 158.355C362.24 155.647 367.86 147.691 369.17 139.441C371.81 122.797 355.679 108.441 339.713 109.114C322.817 109.825 309.46 124.591 307.467 140.864C303.73 171.376 338.612 192.14 365.744 185.232C395.99 177.527 411.258 141.445 403.847 112.802C395.565 80.7896 361.762 60.9028 329.959 61.3311C295.328 61.7947 265.262 86.9195 252.256 117.997C237.964 152.147 244.491 192.922 267.124 221.923C290.076 251.33 327.043 268.332 363.928 270.282C384.335 271.362 405.511 268.382 424.109 259.644C441.646 251.404 455.633 237.495 466.495 221.654C488.802 189.114 497.151 147.55 488.208 109.022C472.848 42.8847 406.335 -5.4821 338.68 0.322197C272.242 6.02032 215.579 62.8317 209.906 129.245C206.657 167.256 219.734 206.258 245.043 234.774C270.093 263.002 306.71 280.341 344.392 282.033C366.045 283.006 387.935 278.932 407.754 270.144C399.006 273.131 390.083 276.143 380.779 276.649C382.569 276.55 384.254 275.779 386.059 275.793C379.724 275.743 373.796 278.539 367.507 278.872C371.166 278.677 374.95 277.913 378.46 276.869C379.653 276.511 383.621 274.823 384.672 276.012C383.939 275.181 379.865 276.657 378.963 276.872C375.686 277.655 372.051 278.472 368.692 278.677C370.2 278.585 384.746 276.161 384.725 276.005C384.753 276.235 370.49 278.154 368.398 278.727C370.925 278.033 373.725 277.86 376.309 277.428C377.342 277.258 383.967 275.336 384.711 276.005C384.597 275.903 383.716 276.15 383.585 276.172C392.398 274.791 345.73 282.489 383.585 276.172Z" fill="#2D7EFF"/>
</g>
</g>
</g>
</g>
</g>
<defs>
<clipPath id="clip0_1_34">
<rect width="700" height="496.3" fill="white" transform="translate(0.576233 0.209808)"/>
</clipPath>
<clipPath id="clip1_1_34">
<rect width="698.564" height="497.018" fill="white" transform="translate(1.29456 -0.149994)"/>
</clipPath>
<clipPath id="clip2_1_34">
<rect width="698.564" height="497.018" fill="white" transform="translate(1.29456 -0.149994)"/>
</clipPath>
<clipPath id="clip3_1_34">
<rect width="698.564" height="174.489" fill="white" transform="translate(1.29456 322.379)"/>
</clipPath>
<clipPath id="clip4_1_34">
<rect width="698.564" height="174.489" fill="white" transform="translate(1.29456 322.379)"/>
</clipPath>
<clipPath id="clip5_1_34">
<rect width="698.564" height="129.069" fill="white" transform="translate(1.29456 322.379)"/>
</clipPath>
<clipPath id="clip6_1_34">
<rect width="698.564" height="129.069" fill="white" transform="translate(1.29456 322.379)"/>
</clipPath>
<clipPath id="clip7_1_34">
<rect width="282.32" height="282.324" fill="white" transform="translate(209.417 -0.149994)"/>
</clipPath>
<clipPath id="clip8_1_34">
<rect width="282.32" height="282.324" fill="white" transform="translate(209.417 -0.149994)"/>
</clipPath>
</defs>
</svg>
