<svg viewBox="0 0 25 23" xmlns="http://www.w3.org/2000/svg"><g><path d="M19.082 22.558a1 1 0 01-1.251-1.56c6.572-5.27 6.572-10.193-.002-15.484a1 1 0 01-.338-.517l-1.012-3.735a1 1 0 111.93-.524l.928 3.425c7.314 6.03 7.23 12.393-.255 18.395zM14.378 17.561c1.216 2.502-2.078 4.834-4.425 3.709-1.155-.553-4.27-3.324-9.649-8.533a1 1 0 01-.276-.953c1.136-4.7 2.093-7.74 2.916-9.204C3.862.947 5.034.035 6.452 0A1 1 0 116.5 2c-.606.015-1.208.483-1.814 1.56-.673 1.197-1.546 3.933-2.58 8.139 4.88 4.711 7.876 7.368 8.71 7.767.822.394 2.037-.466 1.762-1.03-.442-.91-2.573-3.212-6.267-6.71a1 1 0 01-.284-.96l1.596-6.653a1 1 0 011.945.467l-1.462 6.092c3.645 3.473 5.698 5.71 6.27 6.89z" fill="#081A38"/><path d="M2.018 13.96a1 1 0 011.998.08c-.11 2.695.338 4.965 1.328 6.823a1 1 0 11-1.765.94c-1.168-2.192-1.684-4.812-1.561-7.843z" fill="#081A38"/><path d="M18.01 11.395a1 1 0 011.574-1.234c1.694 2.16 1.694 4.209-.17 5.668a1 1 0 01-1.233-1.575c.898-.703.898-1.496-.17-2.86z" fill="#6CA3FF"/></g></svg>