<svg viewBox="0 0 22 26" xmlns="http://www.w3.org/2000/svg"><g transform="translate(0 1)" fill="none" fill-rule="evenodd"><path d="M22 16h-2V6a3 3 0 00-3-3h-2.268A1.99 1.99 0 0015 2a1.99 1.99 0 00-.268-1H17a5 5 0 015 5v10zm0 4a5 5 0 01-5 5H5a5 5 0 01-5-5V6a5 5 0 015-5h2.268A1.99 1.99 0 007 2c0 .364.097.706.268 1H5a3 3 0 00-3 3v14a3 3 0 003 3h12a3 3 0 003-3h2z" fill="#081A38" fill-rule="nonzero"/><circle fill="#081A38" fill-rule="nonzero" cx="21" cy="16" r="1"/><circle fill="#081A38" fill-rule="nonzero" cx="21" cy="20" r="1"/><rect stroke="#081A38" stroke-width="2" x="7" width="8" height="4" rx="2"/><path d="M9.537 15.303l5.035-4.862a1 1 0 011.39 1.438l-5.755 5.558a1 1 0 01-1.414-.025l-2.779-2.877a1 1 0 111.439-1.39l2.084 2.158z" fill="#6CA3FF" fill-rule="nonzero"/></g></svg>