<svg viewBox="0 0 25 26" xmlns="http://www.w3.org/2000/svg"><g fill-rule="nonzero" fill="none"><path d="M18.245 19.216a.986.986 0 111.395-1.395l2.107 2.11.016.01c.02.01.02.01.045.027a.987.987 0 01.197 1.381c-2.093 2.793-5.521 4.268-9.905 4.268-4.385 0-7.812-1.475-9.906-4.268l-.015-.024a.926.926 0 01-.052-.085l-.003-.005-.005-.01-.005-.009-.033-.063a.788.788 0 01-.03-.082l-.003-.01-.003-.01-.005-.017c-.01-.03-.01-.03-.019-.065a.735.735 0 01-.012-.078l-.001-.013-.002-.013-.003-.026c-.003-.027-.003-.027-.004-.057v-.053l.003-.026v-.015l.002-.013a.754.754 0 01.008-.081c.007-.036.007-.036.016-.068l.003-.012.003-.012.003-.012a.766.766 0 01.024-.08c.015-.035.015-.035.03-.064l.003-.008.006-.011.003-.007a.82.82 0 01.044-.083c.02-.03.02-.03.04-.056l.004-.006.007-.01c.031-.04.047-.06.07-.083.005-.008.005-.008.018-.022l2.239-2.24a.986.986 0 111.395 1.396l-1.597 1.597c1.745 1.856 4.413 2.83 7.776 2.83 3.354 0 6.015-.968 7.76-2.813l-1.614-1.614zm5.955-5.272c0 1.28-.14 2.489-.417 3.592a.988.988 0 01-1.914-.48c.237-.945.358-1.992.358-3.112 0-2.705-.685-5.227-1.979-7.296a.986.986 0 111.673-1.046c1.491 2.383 2.279 5.267 2.279 8.342zM5.009 3.71a.986.986 0 01.179-1.384A11.167 11.167 0 0112.067 0c2.557 0 4.962.825 6.952 2.384a.987.987 0 11-1.217 1.553 9.207 9.207 0 00-5.735-1.964A9.21 9.21 0 006.392 3.89a.986.986 0 01-1.383-.179zM2.33 17.055a.987.987 0 01-1.914.48A14.802 14.802 0 010 13.945c0-3.105.803-6.013 2.321-8.41a.987.987 0 111.667 1.057c-1.318 2.08-2.015 4.622-2.015 7.353 0 1.12.12 2.167.358 3.111z" fill="#081A38"/><path d="M13.1 17.1a1 1 0 012 0 3 3 0 01-6 0 1 1 0 012 0 1 1 0 002 0zM7.6 14.1c-1.89 0-3.5-1.288-3.5-3s1.61-3 3.5-3 3.5 1.288 3.5 3-1.61 3-3.5 3zm0-2c.871 0 1.5-.503 1.5-1s-.629-1-1.5-1-1.5.503-1.5 1 .629 1 1.5 1zM16.6 14.1c-1.89 0-3.5-1.288-3.5-3s1.61-3 3.5-3 3.5 1.288 3.5 3-1.61 3-3.5 3zm0-2c.871 0 1.5-.503 1.5-1s-.629-1-1.5-1-1.5.503-1.5 1 .629 1 1.5 1z" fill="#6CA3FF"/></g></svg>